HIERARCHY
ROOT Hips
{
     OFFSET 21.26300 93.27200 -16.45100
     CHANNELS 6 Xposition Yposition Zposition Zrotation Xrotation Yrotation
     JOINT Spine
     {
          OFFSET 0.00000 11.89050 0.00000
          CHANNELS 3 Zrotation Xrotation Yrotation
          JOINT Spine1
          {
               OFFSET 0.00000 25.65740 0.12766
               CHANNELS 3 Zrotation Xrotation Yrotation
               JOINT HEad
               {
                    OFFSET 0.00000 8.73416 0.01134
                    CHANNELS 3 Zrotation Xrotation Yrotation
                    End Site
                    {
                         OFFSET -0.29000 12.77420 2.51395
                    }
               }
               JOINT LeftShoulder1
               {
                    OFFSET 8.99000 -0.36225 -0.22000
                    CHANNELS 3 Zrotation Xrotation Yrotation
                    JOINT LeftArm
                    {
                         OFFSET 10.28270 -0.00338 0.32212
                         CHANNELS 3 Zrotation Xrotation Yrotation
                         JOINT LeftForeArm
                         {
                              OFFSET 32.76690 0.09914 -1.42434
                              CHANNELS 3 Zrotation Xrotation Yrotation
                              JOINT LeftHand
                              {
                                   OFFSET 27.56430 0.08536 1.02216
                                   CHANNELS 3 Zrotation Xrotation Yrotation
                                   End Site
                                   {
                                        OFFSET 16.74430 -0.60000 1.50291
                                   }
                              }
                         }
                    }
               }
               JOINT RightShoulder
               {
                    OFFSET -8.99000 -0.36225 -0.22000
                    CHANNELS 3 Zrotation Xrotation Yrotation
                    JOINT RightArm
                    {
                         OFFSET -10.28270 -0.00338 0.32212
                         CHANNELS 3 Zrotation Xrotation Yrotation
                         JOINT RightForeArm
                         {
                              OFFSET -32.89710 0.09914 -1.42434
                              CHANNELS 3 Zrotation Xrotation Yrotation
                              JOINT RightHand
                              {
                                   OFFSET -27.49210 0.08536 1.02216
                                   CHANNELS 3 Zrotation Xrotation Yrotation
                                   End Site
                                   {
                                        OFFSET -16.63120 -0.60000 1.50291
                                   }
                              }
                         }
                    }
               }
          }
     }
     JOINT LeftUpLeg
     {
          OFFSET 8.94580 -8.66707 0.10165
          CHANNELS 3 Zrotation Xrotation Yrotation
          JOINT LeftLeg
          {
               OFFSET 0.00000 -44.42270 1.37270
               CHANNELS 3 Zrotation Xrotation Yrotation
               JOINT LeftFoot
               {
                    OFFSET -0.25355 -42.09240 -1.46059
                    CHANNELS 3 Zrotation Xrotation Yrotation
                    JOINT LeftToes
                    {
                         OFFSET -0.04000 -4.41509 8.49910
                         CHANNELS 3 Zrotation Xrotation Yrotation
                         End Site
                         {
                              OFFSET 0.08000 -0.04745 9.77979
                         }
                    }
               }
          }
     }
     JOINT RightUpLeg
     {
          OFFSET -8.94580 -8.66707 0.10165
          CHANNELS 3 Zrotation Xrotation Yrotation
          JOINT RightLeg
          {
               OFFSET 0.00000 -44.42270 1.37270
               CHANNELS 3 Zrotation Xrotation Yrotation
               JOINT RightFoot
               {
                    OFFSET 0.25355 -42.09240 -1.46059
                    CHANNELS 3 Zrotation Xrotation Yrotation
                    JOINT RightToes
                    {
                         OFFSET 0.04000 -4.41509 8.49910
                         CHANNELS 3 Zrotation Xrotation Yrotation
                         End Site
                         {
                              OFFSET -0.08000 -0.13745 9.77979
                         }
                    }
               }
          }
     }
}
MOTION
Frames: 8
Frame Time: 0.01667
22.85360 94.68420 -24.74010 -6.76171 -10.08240 -34.34400 4.43083 6.64589 -0.76981 4.30071 13.55360 -1.18714 -8.13120 1.64389 11.97780 0.00000 0.00000 0.00000 -87.98850 -45.16090 -65.88830 4.57680 33.29770 -91.55760 31.43440 10.65070 7.10495 10.85830 0.79068 2.88603 68.82940 -5.74014 80.08510 24.19540 23.43520 75.38980 -3.51340 9.37352 17.41440 20.14860 -10.21340 7.13620 -6.28896 22.39330 17.86010 -3.09164 4.62175 0.28741 -8.50585 -12.65780 0.46410 -6.59146 -7.62023 -1.61238 -3.25032 42.36170 4.10825 3.65614 -27.78070 0.36114 2.07264 10.98170 -12.42340 
22.79820 94.66630 -24.63380 -6.80454 -9.89300 -34.31140 4.39081 6.68445 -0.71684 4.34390 13.62420 -1.09909 -8.14898 1.54484 12.02010 0.00000 0.00000 0.00000 -88.43720 -44.61780 -66.53610 4.98586 33.05680 -91.54380 31.41340 10.72180 7.37025 10.85910 0.79613 2.92485 69.73490 -5.22682 80.15630 24.02200 23.71830 75.65210 -3.57359 9.36014 17.49170 20.41490 -10.39000 6.91008 -6.56240 22.57870 18.25100 -3.24726 4.66372 0.30500 -8.93982 -13.18770 0.26247 -6.52218 -7.65601 -1.88626 -3.26305 42.31160 4.22919 3.46573 -27.73830 0.32511 2.01375 10.80000 -12.36910 
22.73770 94.62880 -24.53150 -6.90037 -9.74579 -34.22510 4.37808 6.73852 -0.68515 4.42087 13.72780 -1.04762 -8.17422 1.49654 12.05150 0.00000 0.00000 0.00000 -88.86370 -44.03090 -67.01880 5.28021 32.81970 -91.44700 31.46940 10.77400 7.55759 10.85510 0.79988 2.95298 70.53080 -4.73527 80.19500 23.94230 23.94420 75.84720 -3.68056 9.33786 17.56500 20.71470 -10.58900 6.81511 -6.79273 22.89990 18.48800 -3.37501 4.65069 0.31841 -9.36616 -13.59760 -0.11086 -6.43193 -7.63569 -2.15656 -3.24964 42.31980 4.27806 3.35316 -27.73810 0.30449 1.94825 10.60060 -12.37350 
22.67480 94.57390 -24.42810 -7.03071 -9.64350 -34.11800 4.37895 6.80254 -0.67435 4.50064 13.85300 -1.03087 -8.23178 1.52341 12.08450 0.00000 0.00000 0.00000 -89.25500 -43.48360 -67.34470 5.43162 32.61030 -91.29360 31.58410 10.79620 7.62692 10.89230 0.81137 3.02399 71.13360 -4.26477 80.20830 23.92140 24.05090 75.95700 -3.84965 9.30175 17.70230 20.99530 -10.82890 6.89356 -6.90827 23.41170 18.51560 -3.43630 4.49836 0.32137 -9.63584 -13.77540 -0.47474 -6.33520 -7.57197 -2.38307 -3.19485 42.38030 4.23927 3.22626 -27.76590 0.28191 1.83610 10.26300 -12.44240 
22.61040 94.50260 -24.31440 -7.16466 -9.56912 -34.01440 4.38544 6.86646 -0.68250 4.55349 13.98040 -1.04307 -8.32802 1.62058 12.14440 0.00000 0.00000 0.00000 -89.60920 -43.03830 -67.56050 5.42784 32.43920 -91.09220 31.72210 10.77270 7.52513 10.98730 0.83710 3.17814 71.58110 -3.78043 80.19450 23.90430 24.01750 75.99840 -4.04903 9.25632 17.94160 21.21580 -11.12630 7.14606 -6.86356 24.10640 18.31800 -3.41341 4.24393 0.31295 -9.80640 -13.85800 -0.75084 -6.25672 -7.49825 -2.53843 -3.06264 42.48690 4.06745 2.95272 -27.78840 0.23224 1.64397 9.68025 -12.47830 
22.54530 94.41700 -24.17970 -7.27701 -9.50139 -33.92020 4.39455 6.91948 -0.70521 4.56090 14.08890 -1.07453 -8.45567 1.77595 12.25790 0.00000 0.00000 0.00000 -89.88460 -42.69170 -67.68980 5.28308 32.29060 -90.83940 31.90140 10.69400 7.21884 11.14900 0.87974 3.42806 71.97380 -3.25861 80.14590 23.85800 23.87640 76.01130 -4.24420 9.20841 18.25830 21.37200 -11.47470 7.46124 -6.71289 24.90680 18.00750 -3.31868 3.96747 0.29684 -10.01170 -14.01950 -0.97988 -6.22293 -7.44007 -2.62880 -2.82309 42.62480 3.73547 2.44928 -27.75890 0.13938 1.36344 8.81367 -12.38540 
22.47700 94.32050 -24.01600 -7.36070 -9.43350 -33.83810 4.40236 6.95884 -0.72545 4.52526 14.17270 -1.09337 -8.64910 2.02303 12.40500 0.00000 0.00000 0.00000 -90.02140 -42.34700 -67.73230 5.05530 32.11310 -90.53570 32.17160 10.56620 6.73073 11.39420 0.93699 3.74596 72.39320 -2.72256 80.06620 23.78310 23.70110 76.04190 -4.43382 9.15992 18.59210 21.49600 -11.83770 7.65041 -6.60472 25.72150 17.80600 -3.20687 3.68634 0.27939 -10.27820 -14.24600 -1.24611 -6.24534 -7.39670 -2.68745 -2.49742 42.77770 3.29149 1.75564 -27.66550 0.01140 1.02712 7.74728 -12.14880 
22.40110 94.21610 -23.81930 -7.42052 -9.37080 -33.76520 4.40447 6.99023 -0.71536 4.46892 14.24200 -1.04902 -8.99050 2.43275 12.50100 0.00000 0.00000 0.00000 -90.02370 -41.85660 -67.71580 4.84036 31.85670 -90.21320 32.52940 10.41640 6.16747 11.72680 1.00200 4.07598 72.88850 -2.22947 79.98370 23.70970 23.57090 76.13140 -4.63181 9.11017 18.87990 21.61670 -12.18560 7.59123 -6.65002 26.50850 17.86200 -3.16433 3.37003 0.26840 -10.52590 -14.38290 -1.60869 -6.32061 -7.35060 -2.76272 -2.15269 42.93950 2.83947 1.00880 -27.56010 -0.12501 0.70295 6.68018 -11.79940 
